<svg xmlns="http://www.w3.org/2000/svg" width="1118.667" height="1068" version="1.0" viewBox="0 0 839 801"><path d="M0 159.5C0 299.5.2 319 1.5 319c.8 0 2.2 1.1 3.1 2.5 1.5 2.4 1.5 2.8-.6 8.3-1.3 3.1-2.7 6.1-3.2 6.7-.4.5-.8 8-.8 16.8 0 12.6.3 16.1 1.5 17.3.8.8 2 2.3 2.7 3.3.7.9 3.1 2.5 5.3 3.3 2.2.9 3.9 2.1 3.8 2.7-.2.6.4 1.1 1.2 1.1.8 0 1.5-.9 1.5-2 0-2.4.3-2.4 5.8-.3 3.2 1.2 4.8 2.6 6.3 5.5 1.1 2.1 2.4 3.8 3 3.8.6 0 .8 1.6.5 4-.3 2.8-.1 4.2 1 4.8 1.3.7 1.3 1.3-.1 4.6-.9 2.1-1.4 4-1.1 4.3.7.7-1.9 5.6-3.8 7.2-2 1.7-2.1 5-.1 5.7 1 .4 3.1-1 5.8-3.7 2.3-2.4 5.2-5 6.4-5.8 2.9-1.9 4.7-6.4 4-10-.9-4.5 1.8-6.7 7.6-6.3 3.1.3 4.7.9 4.7 1.7 0 1.7 6.9.8 8.8-1.2.8-.7 2.7-2 4.3-2.8 1.6-.9 2.9-2 2.9-2.5 0-1.3 4.7-4.3 7.3-4.6 1.2-.1 2.5-.3 3-.3.4-.1.7-.7.7-1.4s.9-2.3 1.9-3.4c1.1-1.2 1.7-2.4 1.4-2.7-.4-.3-.1-.6.5-.6.7 0 1.2-1.5 1.2-3.4 0-2.6.5-3.6 2-4.1 1.1-.4 1.8-1 1.5-1.5-.5-.9 2.4-2.5 3.9-2.1.5.1.4-.5-.4-1.3-.8-1.1-.9-1.6-.1-1.6 1.8 0 1.4-8.7-.4-9.4-2.1-.8-1.9-3.8.7-8.7 3.9-7.6 19-15.2 30.3-15.2 5.7 0 17.4 2.7 18.5 4.2.3.4 2.2 1.7 4.3 3 2.5 1.5 3.7 3 3.7 4.5 0 2.6-4.5 9.3-8.3 12.3-1.4 1.1-3.5 3.7-4.7 5.7l-2.1 3.8 2.6 7.9c1.5 4.3 3.1 7.9 3.6 7.9s.9 1.3.9 2.8c0 2.4.7 3.2 4 4.7 2.2 1 4 2.2 4 2.7 0 .4 1.1.8 2.4.8 2.9 0 8.6 6.6 8.6 10 0 1.2 1.6 4.4 3.6 7.1 4.1 5.6 7.4 13.5 7.4 17.8 0 6.4-5.4 11.6-14.9 14.1-4 1-4.3 1.4-3.8 3.8.9 4.4 2.6 8.2 3.7 8.2.5 0 1 1.3 1 2.9 0 2.3.5 3 2.7 3.6 1.5.3 4.5 2 6.7 3.6s4.7 2.9 5.6 2.9c2.5 0 14-7.1 14-8.6 0-.7.9-1.5 1.9-1.9 1.3-.4 1.7-1.2 1.4-2.5-.4-1.6-.2-1.9 1.1-1.4.9.3 1.6.2 1.6-.4 0-.6-.6-1.3-1.2-1.5-1-.4-1-.6 0-.6.7-.1 1.2-1.5 1.2-3.6 0-1.9.5-3.5 1-3.5.6 0 1 3.3 1.1 7.7.2 10.8.4 14.8 1.3 22.5.7 5.2.6 6.8-.4 6.8-.6 0-2.4 1.3-3.9 2.9-2.3 2.4-3.4 2.9-7.6 2.8-2.8 0-6.1.3-7.3.7-3.2 1.1-5.5 6.6-4.2 10.1.6 1.5 1 4.4 1 6.6 0 3.5.3 3.9 2.4 3.9 1.4 0 2.8-.5 3.1-1 .3-.6 1.7-1 2.9-1 1.3 0 2.9-.7 3.6-1.5.7-.8 1.6-1.5 2.1-1.5s1.9-1 3.1-2.2c2-2 2.2-2 3.5-.3.7 1.1 1.3 4.2 1.3 7.1 0 2.9.5 5.6 1 5.9.6.3 1 2.2 1 4.1 0 2.1.8 4.2 2.1 5.5 1.4 1.4 1.9 2.8 1.5 4.5-.4 1.5-.2 2.4.6 2.4.9 0 .9.3 0 1.2-1.5 1.5-1.6 5.5-.1 6.4.7.4.9 2.3.5 5.4-.3 2.5-.3 5 .1 5.4.4.4.9 2.6 1 4.8.2 2.3.9 5.1 1.6 6.2 1.1 1.6 1.3 5.6.9 17.8-1.4 44.8 15.6 73.7 58.5 99.6 26 15.7 54 26.1 81.3 30.2 4.1.6 9.5 1.6 12 2.2 2.5.5 9.2 1.1 14.9 1.3 5.7.2 10.8.8 11.4 1.4 2.1 2.1 10.7.9 10.7-1.5 0-.8.5-1.4 1-1.4.6 0 1 1.1 1 2.4 0 2 .4 2.3 2.3 1.8 1.8-.5 1.9-.7.5-1-2.9-.6-2-2.2 1.2-2.2 1.7 0 3-.5 3-1 0-.6.9-1 2-1s2-.7 2-1.5c0-1.5 4.8-4 5.8-3 .3.3 1.1-.4 1.9-1.5.8-1.1 2.1-2 2.9-2 .8 0 1.4-.3 1.4-.8 0-.4 1.4-1.5 3-2.4 1.8-1 2.8-2.2 2.4-3.1-.3-1 .4-1.7 2-2.1 2.1-.5 2.6-1.3 2.6-3.6 0-1.7.6-4 1.3-5.1 1-1.7 1-2.3 0-2.6-2.6-.9-1.2-2.2 1.6-1.7 2.8.6 3 .5 2.9-2.7 0-1.9-.5-3.9-.9-4.5-.6-.7-.2-2.1.8-3.5 1-1.3 2.3-3.3 2.9-4.4.6-1.1 1.8-2 2.7-2 .9 0 1.9-.4 2.3-.8.4-.4-.2-.7-1.4-.7-2.6 0-2.9-1.7-.5-2.2 1-.2 1.8-1 1.9-1.8.1-.8.2-2.5.2-3.8.2-1.5.8-2.2 2.2-2.2 1.1 0 2-.5 2-1 0-.6-.4-1-1-1-.5 0-1-.3-1-.8 0-.8 4.9-3.2 6.7-3.2 2.1 0 1.5-1.6-1.2-2.8-2.6-1.2-3.2-2.7-1.5-3.7.8-.5.8-1.1 0-2-.6-.8-.8-2.9-.4-5.4.5-3.4.4-4.1-1-4.1-.9 0-1.6-.5-1.6-1.1 0-.5.8-.9 1.8-.8 4.4.5 7.2-3.3 3.2-4.6-1.6-.5-1.8-1-1-2.6.8-1.4 2.1-1.9 5-1.9 3 0 4-.4 4-1.6 0-1 .6-1.4 1.4-1.1 1.4.6 1.6-1.6.3-2.9-1.7-1.7-.5-2.6 2.8-2 3.1.6 3.5.4 3.5-1.3 0-1.2.9-2.6 2-3.3 1.1-.7 2-2.1 2-3.1s.4-1.6.8-1.3c.5.3.8-.7.7-2.2-.1-1.5.3-3 .9-3.4.7-.5.5-.8-.4-.8-.8 0-2-1.2-2.7-2.6-1-2.2-.9-2.6 1.2-3.6 1.8-.8 2.8-.8 4 .2.8.7 1.2 1.6.9 2.1-.3.5.2.6 1.1.3 1.3-.5 1.5-1.5 1-4.8-.4-2.2-1.3-4.6-2.1-5.2-1.4-1.2-1.9-3.6-.8-4.7 1-.9 3.4.4 3.4 1.9 0 .8.4 1.4.9 1.4 1.1 0 2.4-4.7 1.6-5.9-.2-.5.9-1.4 2.5-2.1 1.7-.7 2.8-1.5 2.5-1.8-.9-.9 1.6-3.1 3-2.6 1.9.8 2.9-1.4 1.4-3.2-1.3-1.6-.6-2.9 1.9-2.9.9 0 1.8-.9 2-2 .5-2.4 2-3.5 5-3.5 1.6 0 2.2-.6 2.2-2.4 0-1.3.6-2.9 1.4-3.5.7-.6 1.6-2.4 1.9-4 .5-2.2 1.3-3.1 3.6-3.6 2-.4 3.1-1.3 3.3-2.7.2-1.7 2.1-3.5 4.6-4.4.1-.1-.4-1.4-1.2-2.9-1.9-3.7-1.3-4.6 2.3-3.5 3.8 1 4.4.4 2.4-2.6-1.4-2.2-1.4-2.4.1-2.4.9 0 2.7-.9 3.9-2 1.8-1.7 2-2.4.9-4-.7-1.1-1.2-2.8-1.1-3.7 0-1.1.3-1.3.6-.6.7 2 4.4-.3 3.6-2.3-.3-.9 0-2 .8-2.4.7-.5 1.3-2.7 1.4-5.2 0-3.7.3-4.3 2.3-4.6 2.2-.3 3-2.6 1.2-3.7-.5-.3-1-1.4-1-2.4 0-1.3-.7-1.8-2.2-1.7-1.3.1-2.2.7-2 1.5.2 1-.4 1.2-2.2.7-2.4-.6-2.5-.5-1.9 3.1.4 2.1 1.3 4.4 2 5.2 1.2 1.1 1.2 1.5.1 2.2-.7.5-1.7.4-2.2-.1-1.7-1.7-2.8-1.1-2.1 1 .4 1.1.2 2-.4 2-.6 0-1.1-.5-1.1-1.1 0-.7-1-.9-2.5-.5-1.9.5-2.5.2-2.5-.9 0-.9.5-1.3 1-1 1.4.9 1.2-.8-.4-3-1.2-1.6-1.6-1.7-3-.6-.9.7-1.6 2.2-1.6 3.2 0 2.6-3.5 2.4-5.4-.3-.9-1.2-1.3-3.1-1-4.5.4-1.4.2-2.3-.5-2.3-.6 0-1.1-.7-1.1-1.5s-.8-1.5-1.7-1.5c-1.5 0-1.6-.2-.3-1 1.1-.7.9-1.1-1.3-1.9-3.7-1.4-3.7-1.4-3.7.7 0 2.3 1.9 4.2 3.5 3.6.9-.4 1.3.5 1.3 3 0 2.1-.5 3.6-1.2 3.6-1.3 0-1.5 10.4-.3 11.6.8.9.9 5.4.1 5.4-1.2 0-5-2.4-6.1-3.9-1-1.3-1.2-1.3-1.3-.2 0 1.2-.3 1.2-1.2.3-.9-.9-.9-1.5 0-2.4 1.3-1.3 1.6-3.8.5-3.8-.5 0-1.3 1.1-1.9 2.4-1.3 2.9.5 7.1 3.6 8.1 1.1.3 2 1.1 2 1.6 0 .6-.6.7-1.2.2-.7-.4-2.1-.6-3.1-.5-1 .2-2.4-.1-3-.6-.7-.5-3.1-1.3-5.4-1.7-3.5-.5-4.3-.4-4.3.8 0 .9.6 1.7 1.3 2 .6.2.9.7.6 1.1-.9 1-3.9-.4-3.9-1.9s-4.6-2.9-6.2-1.9c-.7.4-.8.3-.4-.4.5-.8 0-1.2-1.3-1.2-1.6 0-2.1-.6-2.1-2.6 0-3.9-1.7-6.3-4-5.7-1.1.3-2 0-2-.6 0-.5-.7-.8-1.5-.5-1.1.5-1.5-.2-1.5-2.6 0-3 .1-3.1 3.2-2.5 3 .7 3.1.6 1.5-.9-.9-1-1.7-2.2-1.7-2.7s-1.5-.9-3.3-.9c-3.6 0-6.7-2.8-6.7-6.1 0-1.1-.5-2.9-1-4-.9-1.6-.7-1.9 1-1.9 1.6 0 2 .6 2 3.1 0 2.4.4 3 1.8 2.7 1.2-.2 1.7-1.3 1.7-3.8 0-2.9.4-3.6 2.3-3.8 1.2-.2 2.2.1 2.2.7s-.5 1.1-1.1 1.1c-.5 0-.7.5-.3 1.1.4.7.9.7 1.3.2.3-.5 1.5-1.3 2.5-1.7 1.9-.7 1.9-.8-.5-3-1.4-1.3-3.6-2.7-5-3.1-2.3-.8-2.3-.8-.4-1.6 1.9-.7 1.9-.8-.1-.8-1.8-.1-2.1-.7-2.1-4.2 0-2.2-.5-4.5-1.2-5.2-.8-.8-1.1-.4-1.1 1.6 0 1.5-.3 2.7-.7 2.7-.5 0-.8-2.5-.9-5.6 0-4.1-.5-6-1.7-6.9-1-.7-1.7-2.6-1.7-4.4 0-3.6-1.6-4.2-2.3-.9-.4 2.1-.4 2.1-.6-.3 0-1.4-1-3.4-2.1-4.4-1.1-1-2-2.4-2-3.2 0-.7-.9-2.1-1.9-3-1.1-.9-1.8-2-1.5-2.5.3-.4-.2-1.1-1-1.4-.9-.3-1.6-1.1-1.6-1.8-.1-1.6-3.2-5.1-5.5-6-1.6-.6-1.7-.9-.5-1.6 1.2-.8 1.2-1.2 0-3.6-.8-1.4-2.4-3-3.5-3.5-1.1-.4-1.5-.8-.8-.8 2.8-.2 1.5-9.1-1.4-9.1-1.1 0-1.3.5-.8 1.7 1.5 3.5 1.7 6.3.6 6.3-.6 0-1.1-.6-1.1-1.3 0-.8-1.1-1.9-2.5-2.5-2.7-1.2-3.5-5.6-1.2-6.6.6-.3.2-.3-1 0-1.8.4-2.3.1-2.3-1.5 0-1.2-.7-2.1-1.5-2.1s-1.4-.3-1.4-.8c.1-.4.1-2 0-3.5-.1-2.4-.4-2.7-2.1-2.2-1.7.6-2 .2-2-3 0-2.2-.6-3.8-1.5-4.1-.8-.4-1.5-1.2-1.5-1.9 0-.6-.9-2-2-3s-1.8-2-1.5-2.3c.3-.3-.5-2-1.6-3.9-1.2-1.9-1.9-3.6-1.6-3.9 1-1-2.4-7.5-5.1-10.1-1.7-1.5-2.1-2.3-1-1.9 1.2.3 1.5.1 1.1-1-.3-.7-1.1-1.4-1.9-1.4-.8 0-1.4-.5-1.4-1 0-.6-.4-1-.9-1-1.1 0-2 7-.9 7.6.4.3.7 2 .7 3.7-.1 1.8-.3 2.4-.6 1.4-.2-.9-.9-1.7-1.4-1.7-1.2 0-1.2 2.7.1 3.5.5.3 1 1.7 1 3v5.1c0 1.4.4 2.2 1 1.9.6-.3 1-.1 1 .4 0 .6-.4 1.1-1 1.1-1.4 0-3.8 5.2-3.2 6.9.3.8 0 1.1-.7.7-.6-.4-1.8 0-2.7.8-2.3 2.3-6.9 2-9.8-.8-1.5-1.3-2.6-2.8-2.6-3.4 0-.5-.7-1.3-1.6-1.6-.9-.4-1.4-.9-1.1-1.3.3-.3 0-1.8-.9-3.4-1.6-3.2-2.6-3.8-1.8-1.2.4 1.4.2 1.4-.8-.2-2.3-3.5-9.2-9.6-13-11.6-2.1-1.1-3.8-1.7-3.8-1.4 0 .3-1.1-.2-2.5-1.1-1.4-.9-2.5-2.2-2.5-3 0-2.6-1.9-2.3-5.3 1-1.9 1.8-3.6 3.8-3.8 4.3-.2.6-2 1.4-3.9 1.8-1.9.4-3.2.4-2.8 0 1.1-1.1-4.2-3.6-6.2-3-1.8.6-6.3-3-7.3-5.8-.4-.9-1.2-1.6-1.8-1.5-.7.2-2.2-1.1-3.3-2.8-1.2-1.7-2.8-2.8-3.5-2.6-1 .3-1.2-.1-.7-1.3 1-2.6-.4-8.5-2-8.5-.8 0-1.4.6-1.4 1.2 0 .9-.3.8-1-.2-.8-1.2-1.1-1.2-2.8.3-1 .9-2.3 1.7-2.9 1.7-.6 0-1.3.7-1.7 1.5-.5 1.3-1.1 1.2-4.4-.5-2.2-1.2-4.8-3-5.7-4-1-1.1-2.4-2-3.2-2-.7 0-1.3-.7-1.3-1.6 0-.8-.4-1.2-1-.9-1.4.9-5-1.3-5-3.1 0-1.2-.8-1.5-3.2-1.2-1.8.3-4.1.8-5.1 1.3-1 .4-1.7.4-1.6-.1.3-2-.2-2.8-1-1.5-.7 1.1-1.3 1.2-2.3.4-1.8-1.5-6.8-.4-6.8 1.4 0 1.2-.9 1.3-4.2.8-2.4-.4-4.6-1.3-5-1.9-.4-.6-.8-.7-.8-.2 0 .5-.7.3-1.5-.4-1.6-1.4-1.9-.8-1.7 3.8.1 1.4-.4 2.2-1.1 1.9-.7-.2-1.1-1.1-.9-2.1.3-1.8-.9-2.1-2.5-.5-1.9 1.9-3.3 0-3.3-4.3 0-4.7.8-4.5 2 .4.8 2.9.8 2.7.7-1.7-.2-4.6-.4-5-2.7-5-1.4 0-2.4.5-2.3 1.2.2.6-.7 1.5-2 1.9-1.2.3-3 1.3-3.9 2.1-1 .9-2.4 1.3-3.2 1-2-.8-3.1 1-1.7 2.6.7.9.6 2.1-.4 4-.8 1.5-1.2 3.4-.8 4.2.3.9-.1 1.5-.9 1.5s-2.2 1.5-3.1 3.2l-1.6 3.3v-3.1c-.1-1.7 1-5.3 2.4-8s2.5-5.9 2.5-7.2c0-1.2.3-2.2.8-2.2 1.6 0 .9-6.3-.9-8.1-1.1-1.1-1.9-1.5-1.9-.9 0 1.4-2.6 1.3-5-.3-1.5-.8-2.3-.9-2.8-.1-1.1 1.6-4.1 2.5-10.2 3.1-3 .2-5.7.8-6 1.3-.3.5-1.2.5-2 0-.8-.6-2.5-1-3.7-1-1.3 0-2.3-.4-2.3-.8s-1.8-1.9-4-3.2c-2.2-1.4-4-3-4-3.6 0-.5-2-2-4.4-3.2-3.6-1.7-5.1-1.9-7.8-1.2-4.6 1.4-10.7 1.2-12.3-.2-5.3-4.7-7.6-5.4-11.7-3.4-3.6 1.8-5.8 2-5.8.6 0-.6-1.1-1-2.5-1s-3.5-.9-4.7-2c-1.9-1.7-2-2.5-1.2-6.7.7-3.6 1.6-5.2 3.9-6.8 6.2-4.1 9-6.8 7.8-7.2-.7-.3-1.3-2.1-1.3-4.2 0-2.2-1-5-2.5-7.4-2.4-3.5-3.4-4.1-6.2-3.8-.6.1-1.4-.3-1.8-.9-.3-.5-1.4-1-2.3-1-1 0-2.5-.9-3.5-2-2.4-2.8-3.4-2.5-4.8 1.3-.8 2.3-2.6 4.1-5.8 5.9-4.3 2.4-4.9 2.5-8.8 1.3-2.3-.7-4.3-.9-4.5-.4-.5 1.4-27.8-.7-32.6-2.5-4.9-1.8-12.2-1.2-12.2 1 0 .8-.7 1.4-1.5 1.4-1.8 0-2 2.7-.3 3.2.7.3.8.9.2 1.9-.5.8-.9 1.8-.9 2.4 0 1.2-7.2.7-9.8-.6-1.2-.7-1.5-1.7-1.1-3.2.3-1.3.6-3.1.8-4 .1-.9.9-2.3 1.7-2.9 2-1.7 6.9-10.2 6.9-12.1 0-.8 2-4.2 4.4-7.5 4-5.4 5.6-6.6 15.4-11.6 6.9-3.4 12.9-5.8 16.1-6.2 3.6-.5 5.7-1.3 6.9-2.9 5.8-7.4 21.6-13.4 35.3-13.5 9.9 0 23.8 1.8 26.5 3.5 3.3 2.1 4.9 6.9 3.5 10.3-2.3 5.4-11.5 13.2-15.6 13.2-.7 0-1.5.7-1.9 1.5-.3.8-1.2 1.5-2 1.5s-1.9.6-2.3 1.3c-.4.8-1.6 1.8-2.7 2.4-1.6.9-1.2 1.3 3 2.8 2.7 1 5.4 2.4 5.9 3.1 2.2 2.5 3.8 2.2 14.5-3 2.9-1.4 6-2.6 6.7-2.6 1.4 0 11.3-9.3 11.3-10.7 0-1.9 11.9-5.6 13.9-4.3.6.3 1.3 1.7 1.6 2.9.6 3.2 3.3 7.1 4.8 7.1.6-.1 3.3-2 6-4.4 7.3-6.6 14.3-8.1 21.2-4.6 3.1 1.6 5 1.9 8.7 1.5 7.2-1 19.7 1.2 23.6 4.2 3 2.2 3.2 2.8 2.6 6.1-.4 2-1 4.4-1.5 5.3-.8 1.5-1.4 4.2-2.5 10.4-.3 1.6-1 3.1-1.5 3.3-.5.2-.9 1.9-.9 3.7 0 1.9-.7 4-1.5 4.9-.8.8-1.5 2.6-1.5 3.9 0 1.3-.9 3.6-2 5-2.4 3-2.5 3.7-.4 3.7.8 0 1.3-.4.9-.9-.3-.5.8-1.6 2.5-2.5 2.4-1.2 3.5-1.2 5.3-.3 1.3.7 2.2 1.7 2 2.4-.2.6.3 1.8 1.2 2.6.8.9 1.5 2 1.5 2.6 0 .6.7 1.1 1.6 1.1 1.2 0 1.4.3.6 1.3-1.9 2.2-.3 5.7 2.6 5.7 1.3 0 3 .7 3.6 1.5.6.9 2.9 1.8 5.1 2.1 2.2.3 5.5 1.3 7.4 2.1 2.7 1.2 3.9 1.3 5.3.4 1.5-.9 2-.8 2.4.4.4 1 1 1.2 1.8.6.6-.5 5.6-.8 11.1-.5 5.5.2 11 .4 12.2.4 3.6 0 1.6 3-2.1 3.1-3 .1-3 .1-.6.9 2.4.7 2.4.8.5 1.5-1.1.5-3.7 1.9-5.7 3.2-2.1 1.3-4.7 2.3-5.8 2.3-1.2 0-3.1.5-4.3 1.2-1.2.6-4.3 1-6.9.9-2.7-.1-4.8.3-4.8.9 0 .9 1.1 1.2 6.5 1.5 1.1.1 2.6.5 3.4.9.7.5 3.2 1 5.5 1.2 6.5.6 9.4 1.2 10.7 2 .9.5 1 .2.6-.9-.8-2.2.5-2.8 4.2-2.1 3.4.7 4.1 2 1.4 2.7-1 .2.7.3 3.7.1 3.9-.2 5.6-.7 5.8-1.7.4-1.9 5.3-3.7 10.3-3.7 3 0 3.7-.3 3.3-1.5-.4-.8-.1-1.5.6-1.5.6 0 .8-.5.5-1-.3-.6-.2-1 .4-1 .5 0 1.3-.9 1.6-2 .8-2.5 2.2-2.6 2.8-.3.3 1.1.5.7.6-1 .1-2.4.4-2.7 2.1-2.2 1.5.5 2 .2 2-1.2 0-1.9 3.9-6 5.3-5.5.4.1.7-.3.7-.9 0-.6-.9-1.3-2-1.6-1.1-.3-2-.9-2-1.3 0-.5.9-.6 2-.3 1.5.4 2 0 2-1.6 0-1.2.4-2 .8-1.7 1.1.7 6.4-2.9 5.5-3.7-.3-.4-.1-.7.5-.7s1.3.4 1.6.9c.3.5 2.5.6 4.9.4 3.5-.4 4.8-.1 6.3 1.4 1 1 3.1 2.4 4.7 3.1 1.5.6 2.7 1.6 2.7 2.2 0 .5.7 1 1.5 1 .9 0 1.8.6 2.1 1.4.3.8 1.2 1.2 2 .9.9-.3 1.4.1 1.4 1.1 0 .9.6 1.9 1.3 2.2.8.3 1.4 1.9 1.5 3.7 0 1.7.7 3.6 1.4 4.2.9.6 1.2 1.9.8 3.5-.5 1.7 0 3.4 1.2 5.2 1.3 1.9 1.5 2.9.7 3.4s-.4 1.3 1.2 2.5c1.3 1 2.7 1.9 3.1 1.9.4 0 3.3 2.5 6.3 5.5 3.1 3 5.9 5.5 6.2 5.5.3 0 2 1.4 3.6 3.2 1.9 2 3.2 2.7 3.5 1.9.3-.8.8-.7 1.6.5.7.9 2.8 1.7 4.7 1.9 1.9.2 4 .3 4.7.4.6.1 1.2.6 1.2 1.2s-.9.8-2.1.4c-1.5-.5-1.9-.4-1.5.4.4.6 1.6 1.1 2.8 1.1 3.6 0 14.3 3.1 16 4.7 1.5 1.4 2 1.4 3.5.2.9-.8 1.4-.9 1-.2-1 1.6.5 2.4 2.3 1.3.9-.5 1.9-.5 2.7.2 1.7 1.4 11 2.1 11.7.9.4-.6 1.3-.8 2.1-.4.8.3 1.5.1 1.5-.5s-.6-1.3-1.2-1.5c-.7-.3-.3-.6.9-.6 1.2-.1 2.5.4 2.8.9.5.8 1.1.7 2.1-.1.7-.6 1.1-1.5.8-2.1-.3-.5 0-1.6.8-2.5 1.1-1.5 1-1.6-1-1.1-1.8.5-2.1.4-1.2-.6.7-1 .6-1.7-.5-2.6-.8-.7-1.5-.9-1.5-.4s-1.1-.4-2.5-1.9c-2.4-2.5-3.7-3.1-5.8-2.8-.4.1-1.8-.4-3-1.1-1.2-.7-2.7-1.1-3.4-1-2.1.5-2.4-1.7-.3-3 1.1-.7 2-1.9 2-2.7 0-1.1.4-1 1.4.4.9 1.3 2 1.6 3.7 1.2 1.4-.4 4.8.2 8.2 1.5 4.4 1.6 6.1 2.8 7.2 5.2 1 2 2.9 3.8 5.5 4.9 4.5 1.9 8.6 2.4 6 .7-1.2-.8-1.2-1-.1-1 .8 0 1.1-.7.8-2-.6-2.4.2-2.5 2.9-.5 1 .8 3.7 1.5 6 1.5 2.2 0 4.9.7 6 1.5 1 .8 2.2 1.5 2.7 1.5 1 0 .9-3.8-.2-4.4-.5-.3-.7-1.5-.4-2.6.3-1.1 0-2.7-.7-3.5-.7-.8-1.1-1.5-.9-1.6 3.6-.7 4-.4 6.3 4.4 3.3 7.3 5 9.2 7.1 8.4 1.5-.6 1.5-1 .4-2.4-1.2-1.4-1.2-1.6 0-.9 1 .7 1.2.4.7-1.2-.5-1.4-.1-2.1 1.4-2.5 1.7-.4 2-1 1.4-3.4-.4-1.5-1.1-3.3-1.5-3.9-.5-.6-.6-1.4-.3-1.7.4-.3-.4-2.6-1.6-5.1-1.2-2.5-2-5.4-1.8-6.3.2-1.1-1.3-3.5-3.9-6.1-4.7-4.6-6.3-5.2-6.3-2.3 0 3-1.6 3.3-3 .6-.7-1.4-1.7-2.5-2.2-2.5-.4 0-.8-.9-.8-2s-.5-2-1.2-2c-.9 0-.9-.3-.1-1.1 1.2-1.2-.7-5.8-3.2-7.9-.8-.7-1.5-2.1-1.5-3.1 0-1.6.5-1.8 2.8-1.3 1.5.4 3.2 1.1 3.9 1.6 1.5 1.2 5.3-.7 5.3-2.7 0-.7-1-1.5-2.2-1.7-2.3-.3-3.8-2.8-1.6-2.8.7 0 1.9-.9 2.6-2.1 1.1-1.7 1.1-2.6-.2-5.2-.8-1.8-2.4-3.9-3.5-4.7-1.2-.8-2.1-1.8-2.1-2.3 0-.5.7-.4 1.5.3 2.1 1.7 3 .6 1-1.3-.8-.9-1.5-2-1.5-2.6 0-.6-.4-1.1-.8-1.1-.5 0-1.4-1.1-2-2.5-.6-1.4-1.8-2.5-2.7-2.5-.8 0-1.5-.7-1.5-1.6 0-.8-.5-1.2-1.1-.8-.7.4-1-.3-.7-1.8.1-1.4-.4-3.4-1.2-4.4-1.4-1.7-1.4-1.8.2-.6.9.7 1.9.9 2.2.4.6-1-6-6.6-7.8-6.7-1.8-.2-5-1.7-6.8-3.3-1.1-.9-2.8-1.3-4.8-.9-1.7.4-3 .2-3-.3 0-.6-1.1-1-2.4-1-1.3 0-2.6-.7-3-1.5-.5-1.3-.9-1.3-2.6-.3-1.8 1.1-2.3 1-3.8-.9-.9-1.2-2.8-2.3-4.2-2.5-1.5-.2-2.4-.9-2.2-1.7.2-.9-.3-1.1-1.4-.7-1.4.5-5.6-.8-10.6-3.5-1.2-.6-1.8-.5-1.8.2 0 1.6-8.9.3-10.9-1.5-1-.9-2.7-1.2-4.3-.9-1.7.3-3.3-.1-4.3-1-.9-.9-2.2-1.4-2.9-1.1-.9.3-1.3-.5-1.4-2.7 0-1.7-.2-3.2-.4-3.4-1-.8-7.8-1.2-7.8-.4 0 .5 1.2.9 2.8.9 2.3.1 2.5.2.9 1.1-.9.5-2.2.7-2.7.4-1.4-.8-1.3.8.1 2.2.7.7.9 1.8.6 2.7-.5 1.1-1.3 1.3-3.4.7-4.2-1.2-12.3-1.3-12.3-.1 0 .5 1.3 1 2.9 1 2.4 0 3.1.5 3.6 3 .8 3.7-.1 5.6-2 4-1-.8-1.5-.8-2 0-.4.7.2 1.4 1.4 1.7 1.6.4 1.8.9 1.1 2.3-.7 1.3-2.2 1.8-5.6 1.8l-4.7.1.6-3.9c.4-3.3.2-4.2-1.5-5.1-3-1.6-1.8-4 3.1-5.9 3.1-1.2 3.9-1.9 2.8-2.3-.9-.3-1.9-.2-2.2.3-.8 1.4-2.5 1.2-2.5-.1 0-.7-.7-1.7-1.7-2.4-1.6-1.2-.9-4 .8-3 1.8 1.2.8-1.8-1.3-3.6-1.7-1.6-1.8-1.9-.5-1.9 1 0 1.7-.4 1.7-.9s.9-1.1 2-1.4c1.1-.3 2-.1 2 .4 0 .6.8.5 2-.1 1.7-.9 1.8-1.4.8-3.5-.7-1.5-2-2.5-3.2-2.5-1.2 0-3.8-.9-5.9-2-2-1.1-4.6-2-5.8-2-1.8 0-2.1.5-1.7 3 .5 3.4-.6 3.8-3.4 1.3-1.6-1.5-2.1-1.5-2.8-.3-.5.9-.5 1.9.2 2.7.6.7.7 1.3.3 1.3-.4 0-1.5-1-2.6-2.3-2.1-2.5-2.5-7.3-.6-8 .9-.3.7-.9-.5-2.4-1.1-1.1-1.8-3.4-1.7-5.4.1-1.9.3-2.6.6-1.6.6 2.2 2.7 1.7 3.1-.6.2-1-.3-1.7-1.2-1.7-.9 0-1.6-.5-1.6-1 0-.6.6-1 1.3-1 .8 0 .7-.4-.3-1-1.3-.9-1.3-1.1 0-2.1 1.2-.8.8-.9-1.7-.5-2.6.4-3.3.1-3.8-1.4-.4-1.1-1.3-2-2.1-2s-1.4-.5-1.4-1.1c0-.6-.7-.8-1.6-.5-2.5 1-6.4-2.3-6.3-5.3.1-1.7.3-2 .6-.9.2 1 .9 1.8 1.4 1.8.6 0 .7-.5.4-1-.4-.6-.1-1.8.7-2.7 1.1-1.4 1.1-1.6-.4-1-.9.3-1.9.1-2.2-.6-.2-.7-.8-.2-1.1 1-1 3-2.2 2.9-2.7-.2-.5-2.6.9-4.5 2.1-2.9.3.5 1.8 1 3.3 1 2.3.1 2.6-.1 1.8-1.7-.7-1.2-.7-2 0-2.4 1.5-.9 1.2-2.5-.5-2.5-.9 0-2 1-2.5 2.2-.7 1.9-.9 1.5-.9-2.3-.1-2.5-.7-5.1-1.3-5.7-1-1-1-1.5-.1-2 .8-.5.9-1.3.3-2.2-.7-1.1-.3-2 1.2-3.1 1.6-1.2 1.9-2.3 1.4-4.3-.3-1.4-1.1-2.6-1.7-2.6-.6 0-.7.4-.4 1 .3.5.2 1-.3 1-.8 0-2.2-2.2-2.2-3.5 0-.2 1.2-.5 2.8-.7 2.2-.2 2.8-.8 3-3.6.3-2.9.1-3.2-2.2-3.2h-3.3c-.5-.1-.9.8-1.1 2-.2 1.1-.8 2-1.3 2s-.9.7-.9 1.5c0 .7-2.3 2.4-5 3.7-2.8 1.3-5 2.6-5 3 0 .5-.9.8-1.9.8-1.2 0-2.3 1.1-3 3-.7 2-1.7 3-3 3-1.2 0-2.1.7-2.1 1.5 0 1.5-1 1.9-4.2 1.6-2.1-.3-2.4 1.5-.5 2.2.6.3 0 .6-1.5.6-1.6.1-2.8.5-2.8 1.1 0 .5-1.1 1-2.5 1-1.7 0-2.5.6-2.5 1.7 0 1.3-.3 1.4-1.1.6-1.4-1.4 1-4.3 3.4-4.3.7 0 1.6-.3 1.9-.6.8-.7-2.1-6.4-3.3-6.4-.5 0-.9-.7-.9-1.5 0-1.7-2.6-2.1-3.3-.5-.3.6-.4.5-.3-.2.2-.8 2.3-1.4 5.9-1.6 3.1-.2 5.7-.7 5.7-1.1 0-1.4-5.8-2.1-8.5-1.1-1.4.5-2.5.7-2.5.3 0-.4-.6.2-1.4 1.3-1.4 1.8-1.5 1.8-2.2 0-.5-1.2-.2-2.2 1-2.8.9-.5 1.4-1.4 1-2-.9-1.5 1.8-6 3.3-5.4 1.2.5 1.7-.5 1.4-3-.1-.7.5-1.4 1.4-1.8.8-.3 1.5-1.5 1.5-2.6 0-1.2 1.1-3.2 2.5-4.6 1.4-1.4 2.5-2.2 2.5-1.7 0 .4 1.5-.8 3.4-2.6s3.9-3 4.4-2.7c.6.4 1.7-.2 2.4-1.1 1.7-2.4 12.4-10.3 13.8-10.3 2.1 0 9-4 9-5.3 0-.8.3-.7.9.2.7 1.2 1.5 1.2 3.3.4 2.6-1.2 14-.5 13.2.8-.3.5 0 .9.5.9.6 0 1.1-.5 1.1-1 0-1.7 4.8-1.1 5.8.7.9 1.5 3.5 2.1 10 2.4 1.2.1 2.2.5 2.2.9 0 1.3 4.8 1.8 5.9.7.8-.8 1.1-.7 1.1.1 0 1.4 3.6 1.6 4.4.3.7-1 5.6.9 5.6 2.1 0 .5 1.5.8 3.4.8s3.8.5 4.2 1.1c.3.6 1.7.8 3.1.5 1.3-.4 3.6 0 5.1.7 4.5 2.4 7.6 3.5 10 3.5 1.3.1 2.9.8 3.5 1.6.7.8 3.6 1.7 6.7 2 3 .2 5.6.9 5.8 1.5.2.6 1 1.1 1.7 1.1s1.5.5 1.7 1.1c.2.7 2.4 1.2 4.8 1.1 2.5 0 5.2.6 6 1.4.8.7 3.4 1.7 5.6 2.2 3.3.7 4.3.6 5.2-.7 1-1.4 1.1-1.4 1.1.1.1 2.2 3.1 2.4 3.1.3 0-2.3 1.7-1.8 2.4.8.3 1.2 1.3 2.4 2.3 2.4 1 .1 5 .4 9 .7 7.8.4 9.3 1 9.3 3.2 0 .8.5 1.4 1.1 1.4.6 0 .9-.7.5-1.5-.3-.8-.1-1.5.4-1.5.6 0 1 1.4 1 3.2 0 1.7.3 2.9.6 2.6.3-.4 1.7 0 3.1.7 1.5.8 3 1.2 3.5.9.4-.3.8 0 .8.6 0 .7.7.5 1.6-.4 1.4-1.4 1.8-1.3 4 .9 2.5 2.5 3.4 2.9 6.6 2.6 1.7-.2 4.2 3.2 3.1 4.3-.3.3.7.7 2.3.8 1.6.1 3.8.3 4.9.4 1.1.1 2.6.2 3.4.3 1 .1 1.2 1 .8 3.1-.7 3.4-.8 3.4 4.4 1.9 3.2-1 4-.9 5.4.4 1.1 1.1 2.5 1.4 4.6 1 2.4-.5 2.8-.3 2.3 1.1-.4 1 0 1.8 1 2.2.9.3 1.6 1.2 1.6 2s.7 1.4 1.5 1.4c.9 0 1.5.9 1.5 2.4 0 1.4.5 2.8 1 3.1.6.4 1 1.6.8 2.8-.2 1.2.2 2.1.7 2 .7-.1.9 1.3.7 3.3-.3 2.5-.8 3.4-1.8 3-2.5-1-1.5 1.9 1.5 4.4 1.7 1.3 2.8 2.7 2.5 3.1-.2.4.4 1 1.5 1.4 2 .6 7.1 7.3 7.1 9.3 0 .7.5 1.2 1 1.2.6 0 1 1.1 1 2.5 0 1.6.6 2.5 1.5 2.5 2 0 1.9 1.4-.1 3.1-.9.7-1.4 2.2-1.1 3.5.3 1.6-.3 2.5-2.2 3.5l-2.6 1.2 2.5.7c1.4.4 2.4 1.2 2.3 1.8-.2.7.1 1.2.7 1.2.5 0 .7.7.3 1.6-.3.8-1.5 1.4-2.7 1.3-1.1-.2-3.1.3-4.4 1-1.2.6-3.2.9-4.2.6-2.4-.8-4.4 3.2-2.8 5.2.8.9.4 1.5-1.3 2.2-1.3.5-2.8.6-3.2.4-.5-.3-.7.5-.5 1.8.2 1.8 1 2.5 3.1 2.7 1.9.2 2.7-.1 2.7-1.2 0-.9.4-1.6.9-1.6 1.3 0 3.2 2.6 2.4 3.3-.3.4.2.9 1.1 1.3.9.3 1.6 1.2 1.6 1.9 0 1.6-3.8 5-4.7 4.2-.4-.4.2-1.3 1.2-2 1.7-1.3 1.7-1.4-.1-2.2-2.7-1.2-8.4-1.2-8.4 0 0 .6.9 1.6 2.1 2.3 1.5 1 1.9 2 1.5 3.8-.5 1.9-.1 2.7 1.8 3.6 1.7.7 2.5 1.8 2.3 3.2-.1 1.2.3 2 .9 1.9.7-.1 1 .6.7 1.7-.4 1.5 0 2 1.3 2 1.8.1 1.8.1-.1 1.6-1.9 1.6-1.9 1.6 1.1 1.2 2.8-.4 3.1-.1 4 3.7.9 4 .9 4.1-1.5 3.7-1.8-.4-2.2-.2-1.6.8.6 1 .4 1.2-.9.7-1-.4-2.2-.7-2.7-.7s-.8-.5-.6-1.1c.1-.6-.4-1.4-1.1-1.6-1.9-.7-1.1 2.8.8 3.7 4.5 2.1 5.5 2.9 5.4 4.8 0 1.4.8 2.2 2.5 2.6 1.4.3 3.7 2 5 3.7l2.5 3.2-3 2.4c-1.8 1.6-2.4 2.7-1.7 3 .9.3.8 1.1-.3 2.9-1.1 1.6-1.2 2.4-.5 2.4s1.1 1 .9 2.2c-.2 1.1.3 2.3 1 2.6.7.2 1.2 0 1.1-.5-.1-.4-.1-1.5 0-2.3.1-1.3.3-1.3 1 0 .6.8.7 1.8.4 2.3-.3.5.3.7 1.3.5 2.2-.4 5 4 3.5 5.5-.5.5-.7 1.5-.4 2.2.2.8-.6 1.9-1.8 2.6-1.9 1-2 1.3-.8 2.3.8.6 1.5 1.8 1.5 2.6.1.8.5 2.3.9 3.2.6 1.5.2 1.8-2 1.8-1.7 0-2.5.4-2.2 1.2.2.7 1 1.2 1.6 1 .8-.1 1.1.6.9 2-.2 1.6-.9 2.2-2.1 2-1.5-.3-1.7.1-1.2 2 .4 1.3 1.2 2.9 1.7 3.5.7.9.7 1.3-.1 1.3-.6 0-1.1 1.7-1.1 4 0 2.2.5 4 1.1 4 .5 0 .7.5.3 1.1-.5.8-.9.7-1.4-.1-.5-.8-1.5-1-2.6-.6-1.5.6-1.3 1.1 1.8 4.1 3.1 2.8 3.4 3.5 2 4-1.5.6-1.5.8.2 2.1 1.7 1.2 1.8 1.4.3 1.4-2.1 0-2.3 2.9-.2 3.6.8.4 1.5 1.7 1.5 3 0 1.4.7 2.7 1.6 3.1 1.1.4 1.4 1.3 1 2.9-.5 2-.2 2.4 1.5 2.4 1.8 0 1.9-.2.9-1.5-1-1.2-1-1.5.4-1.5.9 0 1.6-.6 1.6-1.3.1-.7.6-.5 1.4.5 1.1 1.6 1.5 1.3 3.5-2.8 1.3-2.5 2-5.2 1.7-6-.4-1.2-.2-1.2 1.4-.4 1.1.6 2 .8 2 .5 0-.3.7-.2 1.6.3 1.1.6 3.5.5 6.8-.4 2.8-.8 6.6-1.4 8.4-1.4 1.9 0 6.2-.8 9.7-1.7 7.3-1.9 8.5-1.6 15.5 4.4 3.3 2.9 3.9 3.1 4.3 1.6.3-1.3.5-1.1.7.7.1 1.4.2 2.8.1 3.2-.2 1.3 1.7.9 2.1-.3.5-1.6 9.7-2.3 13-1 10.5 4 7.7 28.1-3.2 28.1-3.5 0-6.4-1.3-9.7-4.3-1.3-1.1-2.5-1.8-2.8-1.5-.3.3-1.7 5.3-3 11-2.6 11.6-8.1 23.8-14.8 32.8-2.3 3-4.6 6-5.3 6.5-.7.6-1.9 2.7-2.7 4.6-.8 1.9-2.5 4.7-3.8 6.1-1.3 1.5-3.1 3.5-3.9 4.5-.9 1-3.9 3.9-6.7 6.4l-5.2 4.6 1.5 4.3c1.9 5.6 1.2 9.2-1.9 8.8-1.4-.2-2.3-1.1-2.5-2.6-.5-3-2.2-2.8-2.2.3 0 2-.5 2.5-2.5 2.5-1.7 0-2.5-.6-2.6-1.8 0-1.4-.3-1.3-1.6.6-.8 1.2-1.9 2.2-2.4 2.2s-2.3 1.2-3.9 2.7c-3.2 2.8-8 4.7-14.3 5.6-2.7.4-3.7.3-3.4-.6.2-.7.9-1.2 1.5-1.2.7 0 1.1-.5 1.1-1-.3-1.9-2.4-4.5-3.6-4.5-1.6 0-1.7-1.2-.1-2.8.9-.9 1-1.5.2-2-1.5-.9-4.4-6.7-4.4-8.7 0-.9-.3-1.4-.7-1.2-.5.3-.8-1.7-.8-4.5 0-4.8-1.6-8-3-5.8-.3.5-.4 1-.1 1 .3 0-.6 1.2-2.1 2.7-1.4 1.6-2.9 3.8-3.4 5-.5 1.3-1.3 2.3-1.9 2.3-.6 0-.8-.4-.5-1 .3-.6-.1-.7-.9-.4-1.9.7-2.1-1.2-.3-2.3.6-.4 1.3-2.4 1.4-4.3.2-1.9.4-5 .5-6.8.1-1.8.7-3.2 1.5-3.2 2.5 0 1.4-3.7-1.2-4.2-2.9-.6-3.5-.2-3.5 2.8 0 1.7-.4 2.1-2 1.7-2.3-.6-2.7 1.6-.8 3.5 1.5 1.5-.1 2.9-4.4 3.9-2.9.6-3.7 1.8-1.6 2.5.6.2.8 1 .4 1.7-.6.9-1.1.9-2.2 0-.8-.6-1.7-.9-2.1-.5-1.2 1.1 1.5 2.9 4.6 3 2.4.1 3.1.5 3.1 2.2 0 1.7-.5 2-2.5 1.6-1.8-.3-2.5 0-2.5 1.1 0 .8-.9 1.7-2 2-1.2.3-2 1.4-2 2.6 0 3.7-3.5 2.1-4.5-2.2-.4-1.5-1.4-2.7-2.1-2.7-1 0-1.3.7-.8 2.4.9 3.6-.4 7-2.1 5.6-1-.8-1.5-.8-2 0-.4.7-1.9.9-3.8.4l-3.2-.6 1.9 2.1c1.1 1.2 2.7 2 3.5 1.9.9-.2 2.4.5 3.4 1.5 1.4 1.4 2.2 1.5 3.8.7 1.8-1 1.9-.9 1.3 1.5l-.6 2.6 3.8-1.6c2.2-.9 5-2.1 6.2-2.6 1.3-.5 2.9-2.3 3.5-4 1-2.4 1.6-2.9 3.4-2.4 3 .7 2.9-.3-.1-1.4-3.2-1.3-3.1-5.5.2-5.9 1.3-.2 3.1 0 4 .4.9.4 2.2.6 2.9.5.7-.1 1.5 1.5 1.8 3.6.9 6 3.7 10.4 8.2 13.3 3 1.9 3.9 3 3.1 3.8-4 4-24.2 44.7-27.4 55.2-1.5 4.7-3.9 11.4-5.4 15-5.4 12.6-16.1 65.5-15.9 79 0 8 2.6 13.5 7.9 17 2.4 1.6 4.7 2.7 5.1 2.5.4-.3 1.2.2 1.9 1s1.8 1.5 2.5 1.5 1.6.7 1.9 1.6c.3.8 1 1.3 1.5 1 .5-.3 1.6.5 2.5 1.9.9 1.3 3.7 3.6 6.3 5.1 2.7 1.6 6.4 4 8.3 5.6 1.9 1.5 4.3 2.8 5.2 2.8 1 0 1.8.4 1.8 1 0 1.9 9 1.1 11.7-1 1.4-1.1 3.2-2 3.9-2 2.1 0 8.3 3.4 8.4 4.6 0 .6 1.1 2 2.5 3.2 2.3 2 2.4 2.6 1.8 8.3l-.6 6.1 4.2 3.8c6.5 5.8 12 6.1 17.2.9 1-1 3-2.1 4.4-2.5 1.8-.4 2.5-1.3 2.5-3 0-2.1.4-2.4 4-2.4 2.4 0 4-.5 4-1.2 0-.9.3-.8 1.3.1 1 1.1 1 1.4-.1 1.8-.6.3-1.2 1.2-1.2 2.2 0 2.2 2.3 7.1 3.3 7.1.4 0 .7.7.7 1.5 0 2.4 3.4 3.6 6.9 2.4 1.7-.6 2.8-1.6 2.4-2.1-.4-.7.3-.9 2.2-.4 1.6.4 4 .2 5.7-.5 2.9-1.2 3-1.6 3.1-10.9 0-1.9.5-3.8 1.1-4.2 2.1-1.4 0-1.7-4.2-.6-4.9 1.2-6.2.6-3.8-1.8 1-1 1.4-2.3 1-3.3-.3-.9-.7-2.3-.8-3.1-.1-1.9-3.3-5-5-5-3.1 0-4.6-1.3-4.6-4s-.1-2.8-7.7-3.5c-7.8-.7-17.4-3.6-20.3-6-5.3-4.5-15.2-8-16.2-5.7-.5 1.2-7.7 5.2-9.4 5.2-4.9 0-7.4-11.4-3.4-16 1.6-1.9 2.6-2.2 5.7-1.7 4 .7 9.8-.8 12.2-3.1 4.2-4 19.6-9.2 27.2-9.2 5.1 0 17.9 3.4 23.1 6.2 1 .4 9.4 1 18.8 1.3 15.2.3 17.3.6 19.9 2.4 1.6 1.2 3.6 2.1 4.3 2.1.8 0 2.1 1.1 2.8 2.5 1.6 2.9 3.7 3.1 9.9.9 3.3-1.1 4.6-1.2 5.1-.3.5.7 2.1 1 4.1.7 2-.3 3.8 0 4.6.8 1.7 1.6 1.7 3.4.1 3.4-1 0-.9.3.1.9 2.2 1.4-1.4 5.9-5.5 6.7-1.9.3-3.4.9-3.4 1.3s-1.7 1.6-3.8 2.6l-3.7 2 3.8.3c2.8.2 3.7.8 3.7 2.2 0 1.1 1 2 2.5 2.4 1.4.4 2.5 1.1 2.5 1.7 0 .5 1 1.3 2.3 1.8 2.5 1 4.7-.3 4.7-2.8 0-.9 1.1-2.9 2.4-4.4 1.5-1.8 2.7-4.7 3.1-7.9.6-4.3 1.4-5.8 4.9-9 2.2-2.2 6.2-4.9 8.8-6.1 4.8-2.2 6.1-3.7 3.3-3.7-.8 0-2.4-.9-3.5-2-1.2-1.2-3.4-2-5.2-2-3.5-.1-6.8-1.9-6.8-3.9 0-1.1-1.3-1.5-4-1.1-.8.1-1.2-.2-.7-.6.4-.4.1-1.4-.7-2.3-2.6-3-5.6-9.2-5.6-11.7 0-4.8 9.6-14.9 16.1-16.9 5.4-1.7 7.6-4.2 8.1-9.4.4-3.8 1.2-5.5 3.8-8.1 3.2-3.2 3.9-3.3 11.8-2.1.2.1 2.2 2 4.4 4.2 3.9 3.9 4.3 4.1 8.5 3.5 5.8-.8 6.1-1 8.5-6.5 2.2-4.7 2.4-5.4 2.6-8.3.1-.9 3.5-5 7.6-9.1 5.8-6 7.8-7.5 9.5-7 1.7.4 2.1.1 2.1-2 0-1.4-.6-3.2-1.3-3.9-4.3-4.4-5.5-7.4-5.3-13.3.2-6.2-.4-7.5-4.1-7.5-1.4 0-2.5-.9-3.2-2.8-1.3-3.5-3-5.6-5.9-7.1-2.2-1.2-2.2-1.4-.8-3 1.8-2 2.3-13.1.6-13.1-.5 0-1-1.4-1-3 0-1.7-.2-3-.5-3s-3.6 3.1-7.3 6.8c-6.2 6.3-7.2 7-12.8 8.1-3.4.6-6.8.9-7.7.6-1.5-.6-4.9-7.6-6.1-12.7-.3-1.5-.7-6.7-.7-11.5-.1-7-.4-9.3-1.9-11.1-1-1.2-2.5-2.2-3.3-2.2-1.7 0-5.7-3.3-5.7-4.8 0-1.1-5.2-3.2-8-3.2-1 0-2.3.7-3 1.5-2 2.4-4.3 1.8-7.4-1.9-1.6-1.9-4.2-3.8-5.7-4.1-3.5-.8-3.8-2.2-.6-2.7 1.2-.2 2.6-1.3 3.2-2.6.5-1.2 1.4-2.2 2-2.2.6 0 1.6-.9 2.3-2 .7-1.1 1.7-2 2.3-2 .6 0 2.4-1 4.1-2.1 2.5-1.8 2.9-2.7 2.7-6-.3-3.1.2-4.4 2.4-6.7 1.5-1.5 2.7-3.6 2.7-4.5 0-1 .7-2 1.5-2.3.8-.4 1.5-1.2 1.5-1.8 0-2.1 4.8-4.2 6.2-2.8 1.6 1.6 4.5 1.5 5.1-.2.6-1.6 4.5-2.2 17.1-3.1 4.7-.3 8.3-1 8.8-1.7s.6-3.6.3-6.3c-1.5-12.6-1.2-14 4-18.8 6.1-5.7 6.7-6.2 8.8-7 2.2-.8 1.9-4.3-.8-8.3-2.7-4-3.4-16.6-1.1-18.9.9-.9 1.6-2.2 1.6-3 0-1.2 2.6-2.6 7.7-4 3.1-.9 8.5 1.9 10.6 5.4 2.6 4.4 10 11.1 12.2 11.1 3.2 0 5.9 2.4 5.2 4.5-.5 1.3-.3 1.6.8 1.1.9-.3 1.5 0 1.5.9 0 .8-.6 1.5-1.2 1.5-.7 0-2.4.9-3.7 1.9-1.3 1-3.2 1.6-4.1 1.4-1-.3-4.3.8-7.3 2.4l-5.6 2.8 4.4 6.4c2.4 3.5 5.2 8.4 6 11 3.4 9.6 7.4 17.8 10.8 22.1 1.5 1.9 2.7 4.1 2.7 4.8 0 2.6 5.1 8 9.4 10.1 2.4 1.1 5.7 3.4 7.4 5 1.7 1.7 3.3 3.1 3.6 3.1.3 0 .6-18.9.6-42v-41.9l-3.2-1.7c-1.8-.9-3.8-2.2-4.5-2.9-.7-.7-1.6-1.5-2-1.7-.5-.1-1.5-1.9-2.5-3.9-1.3-2.9-1.4-4.3-.5-7.7.6-2.3 1.5-4.2 1.9-4.2.4 0 .8-.9.8-2 0-1 .6-2.3 1.3-2.7 1.5-1 3.7-7.1 3.7-10.2 0-4-6.4-13.1-9.2-13.1-.5 0-.8-.9-.8-2s-.4-2-.8-2c-.5 0-1.4-1.1-2.1-2.4-1.5-2.7-.6-6.6 1.5-6.6.8 0 1.4-.6 1.4-1.3 0-.7 1.8-2 4-3 2.2-.9 4-1.9 4-2.3 0-.3-.4-.2-1 .1-1.1.7-1.1.8-1.5-5.8-.1-2.6.2-5 .7-5.3.4-.3.6-1 .3-1.5-.4-.5.8-.9 2.4-.9 2.1 0 3.1-.5 3.1-1.5 0-.8.7-1.5 1.5-1.5 1.3 0 1.5-5.7 1.5-45 0-45.3-.6-54.2-3.7-56.5-2.1-1.6-2.6-10.1-.8-13.8.8-1.6 1.5-3.6 1.5-4.2 0-.7.7-1.8 1.5-2.5 1.3-1.1 1.5-5.8 1.5-31.6 0-27.7-.4-32.8-2.4-29.5-.3.4-2.9.9-5.7 1-2.9 0-6 .3-7 .6-1.3.5-1.9-.4-2.9-4.5-.7-3-2-5.4-3.1-6.1-1-.5-1.9-1.6-1.9-2.4 0-2-3.5-2.8-5.9-1.4-1.3.9-1.9 2.3-1.8 4.6.1 1.8.5 3.3.8 3.3.3 0 1.5.9 2.7 2 2.8 2.6 2.9 7.3.2 11-1.8 2.5-2.3 2.7-7.2 2.3-5.7-.5-12.8-3.1-12.8-4.6 0-.6-2.3-.7-5.7-.2-3.2.4-6.9.7-8.2.7-1.5 0-2 .3-1.2.8.9.5.8.9-.6 1.5-6.9 2.8-10.5 3.2-28.8 3.7-13 .3-17.2-.9-17.2-4.9 0-1.4-.4-2.8-.9-3.2-1-.7-1.2-1.5-1.6-6.4-.1-2-.4-3.5-.7-3.5-1.7.1-1.9-.5-1-3.6.6-2.2.6-4.3-.1-6.2-.8-2.1-.8-2.9.2-3.5.8-.5 1.4-.3 1.6.6.4 1.9 2.2 2 2.2.1 0-.8 1.7-1.6 4.6-2 7.8-1 11-.7 13.7 1.4 1.4 1.1 2.9 2 3.5 2 .5 0 1.7.9 2.6 1.9 5.7 6.3 21.2.4 22.9-8.7.6-2.9.3-3.4-3.4-5.8-2.4-1.5-4.8-2.3-5.9-1.9-2.5.8-8.4-2.1-15.9-7.9-6-4.7-6.1-4.7-5.8-9.4.4-5.5 1.4-8.2 3.1-8.2.7 0 2.8-2.1 4.6-4.7 5.2-7.2 12.9-14.1 17.4-15.6 2.9-1 4.2-2 4.4-3.5.2-1.4 1.3-2.4 2.8-2.8 2.1-.5 2.4-1.1 2-3-.3-1.2-.1-2.6.4-2.9.8-.5.7-1.1-.1-2.1C780 .3 777 0 768.5 0h-11.3v4.5c0 12.2-2.8 17.9-9.2 19-2.3.4-4 1.2-4 2 0 1.6-4.1 3.2-10.3 3.9-4.9.6-8.5-.5-10-3-.4-.8-1.5-1.4-2.2-1.4-.8 0-1.5-.3-1.5-.8 0-.4-1.7-1.2-3.7-1.9-3.3-1-3.8-.9-5.4 1-1 1.2-1.8 2.6-1.9 3.1 0 .4-1.2 3.4-2.6 6.6-2.9 6.1-5.5 8.3-11.6 9.4-7.4 1.3-15-5.7-15.1-14.3-.2-5.5 4.4-12.5 9.9-15 2.4-1.2 6.3-3 8.7-4.1 2.8-1.3 6.4-2 10.3-2 4.1 0 6.9-.6 9.1-2 4.3-2.6 7.8-3.1 12.7-1.9 3.4.8 5 .6 9.1-1l5-2-45.6-.1c-38.3 0-45.8.2-46.2 1.4-.8 1.9 1.9 13 3.2 13.4.6.2 1.1 1.4 1.1 2.7 0 2.8 1.8 4.7 5.9 6.5 2.4.9 3.4 2.2 4.2 5.4 1.5 5.3 1.6 18.1.1 19.9-.6.7-1.4 3.2-1.8 5.5-.5 3.5-.4 4.3 1.2 4.8 9.5 3.1 13.4 7.6 13.4 15.2 0 4.8-.3 5.5-4.1 9.2-3.4 3.3-4.8 4-8 4-2.2 0-3.9.4-3.9 1 0 .5-.7 1-1.5 1s-1.5.6-1.5 1.4c0 2.5-1.4 2.6-7.9.3-4.3-1.5-7.7-3.5-10.6-6.3-2.3-2.3-5.1-4.6-6.2-5.3-1.4-.7-2.4-2.5-2.8-5-.5-3.3-.1-5.2 2.9-11.4 3.6-7.4 4.5-12 2.6-13.2-2.1-1.3-1-7 2.1-10.8 1.7-2 2.8-4.1 2.5-4.6-.3-.5-2.4-.5-4.8 0-7.5 1.4-9.8 1.1-12.8-1.9-2.2-2.2-3-4.2-3.6-8.8-1.4-11-.7-12.1 10-17.4 3.6-1.8 5.1-3.1 5.1-4.5 0-1.8-.8-2-9.7-2.3L618-.1v5.2c0 8-1.8 12.6-6.4 16.4-2.3 1.8-4.8 3.4-5.6 3.6-2.3.4-6-1.1-6-2.5 0-1.8-5-6.1-8.8-7.6-3.6-1.4-9.4-.8-11.7 1.2-4.1 3.7-4.8 4-7.6 3.4-1.7-.3-3.7-1.3-4.5-2.1-.9-.8-2.1-1.5-2.9-1.5-2.3 0-7.5 5.3-7.5 7.7 0 1.2-.4 2.5-1 2.8-.5.3-1 0-1-.8 0-.7-1.1-2-2.5-2.7-1.7-.9-2.5-2.2-2.5-3.9 0-1.4-1.1-3.6-2.5-5.1-2.2-2.3-2.3-2.8-1.2-6 .7-1.9 1.8-4.5 2.5-5.8l1.3-2.2h-45.3c-35.1 0-44.9.3-44 1.2 2.7 2.7.7 7.8-3 7.8-1 0-1.8.6-1.8 1.4 0 .8-2.1 2.4-4.6 3.6-2.5 1.3-5.3 3-6.2 3.9-2.5 2.5-10.9 5.4-14 4.8-5.6-1.1-15.8-5.5-18.4-8.1-1.5-1.4-3.1-2.6-3.6-2.6-.6 0-1.2-.6-1.5-1.4-1.2-3.2-9.8.4-12.1 5-.8 1.8-1.8 5.8-2.1 9.1-.9 7.2-3.9 11.5-9.2 13.1-2.2.6-5.4 2.7-7.1 4.7-3.8 4.2-7.3 6-12.9 7-2.3.3-6.1 2-8.3 3.6-2.3 1.7-5.1 3.4-6.3 3.8-3.6 1.3-7.6-.7-9.8-5-1-2.1-2.3-3.9-2.7-3.9-.5 0-1.8-2-3-4.4-4.1-8.5-.9-13.9 9.1-15.2 3.6-.5 5-.2 7.3 1.4 1.6 1.2 3.6 2.2 4.4 2.3 2.8.3 4.1-.1 3.5-1.1-.3-.6.2-1 1.2-1.1 1.4 0 1.5-.2.3-.6-4.3-1.6-11.1-10.5-13.1-17.2-1-3.2-2.1-4.7-4.5-5.8-3.6-1.8-9.4-1.1-11.8 1.2-4.3 4.3-12.3 2.4-18.2-4.3-4.2-4.7-6.4-3.9-6.4 2.3 0 5.5-1 6.7-8.7 10.1-3.1 1.4-6.2 3.3-6.9 4.2-1 1.3-1.6 1.4-3.7.5-2.2-1-2.6-.9-3.1 1-.3 1.2-.6 3.4-.6 4.9 0 1.5-.6 3.1-1.2 3.5-1.6 1-3.8 4.9-3.8 6.7 0 1.9-2.6 4-3.5 2.6-.4-.6-2.7-.8-6.1-.4-4.7.6-5.7.4-7.4-1.4-1.7-1.8-1.9-3.3-1.7-10.9.4-10.3 2.4-15.1 7.5-17.9 3.3-1.8 9.5-2.1 11.7-.6.5.4 2.2.9 3.7 1.1 2.2.2 2.9-.3 3.4-2.3.3-1.4 1-2.6 1.5-2.6s.9-.9.9-2c0-2-.7-2-37.6-2h-37.6l.7 2.7c.4 1.6 1.5 3.6 2.5 4.6 2 1.8 5 10.5 5 14.1 0 1.2-1.1 5-2.3 8.6-1.4 3.9-2.4 9.5-2.6 14-.3 9.1-3.1 15.8-7.7 18.9-4.7 3.2-7.5 10-8.2 19.5-.4 6.2-1.1 9.1-3.2 12.6-2.8 4.8-9.3 9.8-13.8 10.6-1.5.3-3.1.9-3.6 1.5-1.8 1.6-6.5 1-8.6-1.3-2.8-3.1-6-9.5-6-12.2 0-2.2-2.7-5.6-4.5-5.6-1.7 0-8.5-5.3-8.5-6.6 0-.9-1.1-1.4-2.8-1.4-4.2 0-8.2-3.8-8.2-7.8 0-3.5 2.5-8.2 4.4-8.2.6 0 1.7-.9 2.3-1.9 1-1.7 2-1.9 6.5-1.4l5.3.5 1.9-4.3c1.9-4.3 1.9-5.3 1.4-26.2-.1-1.6-.6-2.7-1.4-2.7-.8 0-1.4-.7-1.4-1.5 0-1.2-1-1.5-4.7-1.2-6.1.5-8.3-.6-8.3-4.1 0-1.5-.7-3.8-1.6-5.1-1.5-2.1-1.5-2.7.2-7.9 1-3.1 1.9-6.3 2-7 .2-.9-7.1-1.2-33.7-1.2H80v2.6c0 1.5-.5 4.4-1.1 6.4-.9 2.9-.9 4.6 0 7.1.6 1.8.7 3.5.3 3.8-.5.3-1.4 1.6-2 2.7-2.5 4.7-9.2 2.8-9.2-2.6 0-1.2-.5-6.3-1.2-11.1L65.6 0H0v159.5zM309.8 42.7c2.8.8 5.2 2 5.2 2.7 0 .7.9 2.1 1.9 3 1.1 1 3.1 4.2 4.5 7.1 1.7 3.6 3.6 6 5.6 7 1.6.8 3 1.9 3 2.3 0 .4 1.4 1.3 3 2 2.1 1 3 2.1 3 3.7 0 2.2-1.1 3.5-11.6 13.2-4.6 4.3-11.6 8.3-14.5 8.3-1 0-3.9 1.3-6.4 2.9-4.1 2.6-4.4 3.1-3.1 4.4.9.8 2.1 1.7 2.7 1.9.8.3 1.3 3 1.3 7.4.1 6.3-.1 6.9-2 7.2-2.7.4-4.7-4.4-5.3-12.4-.1-.7-1-1.4-2.2-1.7-1.5-.4-1.9-1.1-1.5-2.5.5-1.4-.2-2.7-2.4-4.6-3-2.4-3.1-2.7-2-6.3.7-2.1 1.4-6.4 1.6-9.5.4-5.3.2-6.1-3.1-10.6-3.2-4.5-3.5-5.6-3.6-12.1-.1-8.1.7-9.6 6.1-11.2 2.3-.7 4-1.9 4.3-3 .4-1.6 1.2-1.8 5.4-1.3 2.6.3 7.2 1.2 10.1 2.1zM114.3 78.2c3.6 3.3 4.5 9.9 1.9 15.8-1 2.5-2.5 7-3.2 10-1.2 5-6 12-8.2 12-.4 0-2.1-1.3-3.8-3-3.6-3.5-3.8-6.4-1-13.9 1-2.9 2.2-6.8 2.4-8.7.8-5 1.1-5.9 1.6-6.4.3-.3 1.3-2.2 2.2-4.3 2.1-4.3 4.3-4.7 8.1-1.5zm31.5 17.1c1.6 1.3 1.6 6.2-.1 7.6-.8.6-3.1 1.4-5.3 1.9-3.6.8-4.1.6-6.1-2.2-2.8-3.7-2.9-7-.3-9.6 1.9-1.9 2.2-1.9 6.2-.3 2.4.9 4.9 2.1 5.6 2.6zm551.4 20.2c2.9 3.7 4.8 7.3 4.8 9.1 0 .8.4 1.4.8 1.4 1.5 0 4.2 7 4.2 10.8 0 4-3.7 8.2-7.2 8.2-1 0-2.7.5-3.7 1.1-3.1 2-6.5.3-10.2-5.2-4.4-6.5-7.8-13-7.8-15-.1-.8-.9-2.4-1.9-3.5-2.4-2.6-2.4-5 .2-7.7 1.8-1.9 3.1-2.2 10.3-2.2 7.8 0 8.2.1 10.5 3zm91.1 23.2c1.8 1 3.6 2.3 4.2 3 .5.7 3.1 2.1 5.8 3.2 2.6 1.1 4.7 2.5 4.7 3 0 1.5-3.4 8.5-4.2 8.9-1.3.6-6.8 9.2-6.8 10.6 0 1.5-4.7 2.6-11.5 2.9-2.2.1-4.3.6-4.6 1.1-.4.5-1.5.6-2.4.2-1.2-.4-1.6-1.4-1.3-3.1.3-1.4.1-2.5-.6-2.5-.6 0 .1-1 1.7-2.1 1.5-1.1 2.7-2.9 2.7-3.8 0-1 .3-2.1.6-2.4.4-.3.8-2.2.9-4.2.2-3.8 4.3-13.5 5.7-13.5.4 0 .8-.7.8-1.5 0-1.9.5-1.9 4.3.2zm-490.9 22.7c-.8 2 1.2 2.9 3.5 1.4 1.1-.7 2.4-.9 2.8-.5.4.5.2 1.1-.4 1.5-.8.5-.4 1.5 1.3 3.1 2 1.9 2.4 2 2.4.6 0-3.3 2.5-.7 3.7 3.8.6 2.5 1.5 5.2 1.9 5.9.5.7.9 2 .9 2.8 0 .8.6 1.4 1.4 1.2.7-.1 1.9.2 2.5.8.7.5 1.6.7 1.9.3.4-.3.7.1.7.9 0 2.3-3.2 3.2-4.6 1.4-1.4-2-2.8-2-4.8 0s-7.6 3.6-7.6 2.3c0-.6-1-1-2.2-.9-4.3.4-5.9 0-5.2-1.1.5-.8-.2-1-2.1-.6-3.8.7-5.5-.1-4.8-2.1.4-1.3.1-1.2-1 .3l-1.6 2-1.5-2c-1.4-1.9-1.3-2 1.7-2.3 3.9-.4 5.7-2.5 5.7-6.9 0-2.5.4-3.1 1.5-2.7 1.1.4 1.5-.1 1.5-1.7 0-1.9.2-2.1 1-.9 1.5 2.4 1.8.7.3-2-.7-1.4-1.3-2-1.3-1.4 0 .5-.7 1.9-1.5 3-1.4 1.8-1.5 1.7-.9-1.1.7-3.1 3.1-6.5 4.5-6.5.5 0 .6.6.3 1.4zm29.8 28.6c2.2 0 7.7 4.5 8.3 6.7.3 1.3 1.2 2.3 2 2.3 2.6 0 2.6 2 .1 3.1-2.9 1.3-2.5 3.3.5 2.4 1.3-.4 1.9-.2 1.9.9 0 .8.7 1.9 1.6 2.4 1.4.8 1.3 1-.5 1.5-1.4.3-2.4 0-2.8-.9-.3-.8-1.1-1.4-1.9-1.4-.7 0-2.1-1.5-3-3.3-2.2-4.2-1.8-4-6.7-4.7-2.5-.3-4.1-1.1-3.9-1.8.1-.7-.5-1.2-1.3-1.2s-1.5-.5-1.5-1.1c0-.6-.9-.8-2-.4s-2 .2-2-.4c0-.6.6-1.1 1.3-1.1.7 0 .5-.5-.5-1.1-1.9-1.1-1.3-3.9.8-3.9.8 0 1.4-.5 1.4-1.1 0-.6 1.6-.2 3.6 1 1.9 1.2 4 2.1 4.6 2.1zM40 220.4c0 .8.7 1.6 1.5 2 2.7 1 1.6 4.3-3 8.7-2.5 2.4-4.5 4.7-4.5 5.1 0 .4-1.8 2.5-4 4.8-5.9 6-11.1 5.6-15.3-1.3-1-1.5-1.3-2.7-.8-2.7 2.7 0 12-6.6 13.4-9.5.9-1.9 3.4-4.4 5.9-5.8 5-2.9 6.8-3.3 6.8-1.3zm659 39.1c1.7.9 3 2 3 2.5s.9 1.2 2 1.5c1.1.3 2 1.2 2 1.9 0 1.6 5.2 6.6 6.9 6.6 1.6 0 6.2 3.6 5.5 4.3-.3.3-.1.8.5 1.2.6.3 1.1.1 1.1-.4 0-2 3.5-1.1 5.4 1.4 1 1.3 2.2 2.2 2.7 2 .4-.3 1.1 0 1.5.6.4.8.3.9-.4.5s-1.2-.1-1.2.9c0 .8.9 1.9 2.1 2.3 1.9.7 1.9.9.5 2.1-2.3 1.9-14.6.8-15.8-1.4-.5-.8-1.9-1.5-3.2-1.5-1.5 0-2.6-.7-2.8-1.8-.3-1-2.3-2.8-4.4-3.9-2.1-1.1-6.7-3.5-10.2-5.2-7.2-3.7-8.4-6.3-5.9-11.7 1.4-2.8 2.2-3.4 4.7-3.4 1.7 0 4.4.7 6 1.5zm-245.9 39.6c6.9 2.3 12 5.2 16.9 9.7 2.7 2.5 5 5 5 5.5 0 .4 1.2 2.4 2.6 4.3 1.8 2.3 2.2 3.4 1.3 3.4-1.2 0-1.2.2 0 .9.8.5 1.1 1.6.8 2.5-.3.8 0 1.9.7 2.3 1.2.7 2.9 5.3 2 5.3-.2 0-2.5-2-5.1-4.5-2.5-2.5-4.9-4.5-5.4-4.5-.4 0-1.4-.9-2.1-1.9-1.7-2.4-9.6-8-16.4-11.7l-5.2-2.7 1.4-3.3c.8-1.9 1.5-3.7 1.7-4.1.1-.4-1.1-1.1-2.8-1.4-2.1-.5-2.3-.7-.9-.8 1.2 0 3.6.4 5.5 1zM295.4 409.2c-.4.6-.3.8.3.5 1.6-1 8.3 1.2 7.8 2.6-.3.7-.1 1.7.3 2.3.9 1.5 9.1 2.3 9.5.9.2-.5 1.7-1 3.4-1s2.9.3 2.7.6c-.2.4.6.9 1.7 1.2 1.1.3 2.3 1.5 2.6 2.6.3 1.1 2.5 3 4.9 4.2 2.4 1.1 4.7 2.6 5.2 3.3.4.7 3.1 3 6 5.1 2.8 2.2 5.2 4.4 5.2 5 0 .6 2.9 3.8 6.5 7.2 3.6 3.4 6.5 6.8 6.5 7.7 0 .9.5 1.6 1 1.6.6 0 1 .7 1 1.5s.5 1.5 1 1.5c1.5 0 1.2 1.9-.5 3.6-1.4 1.4-1.9 1.1-1.6-.8 0-.4-1.3-1.5-2.9-2.5-1.7-.9-3.3-2.5-3.6-3.5-.3-1-1.1-1.8-1.8-1.8s-1.8-1.2-2.5-2.6c-.6-1.4-3-4.2-5.3-6.2-2.3-2.1-5.3-4.7-6.5-6-1.3-1.2-3-2.2-3.7-2.2-.8 0-1.7-.7-2-1.6-.4-.9-.9-1.4-1.2-1.1-.4.3-1.9-.7-3.5-2.3-1.6-1.6-3.9-3.2-5-3.5-1.1-.4-1.8-.9-1.5-1.2.3-.3-.5-1.4-1.9-2.5-1.8-1.4-3.9-1.8-9.3-1.7-6.8.1-7.1 0-10.1-3.2-1.8-1.9-4.1-4.4-5.2-5.5-1.6-1.7-1.8-2.3-.8-2.7 2.5-1 4-.7 3.3.5zm86.9 5.6c-.2 1.2.2 2.2.7 2.2.6 0 1-.7 1-1.6 0-1.1.6-1.4 2.3-.9 4.4 1.4 6.9 3.8 9.2 8.8 2.2 5.1 2.2 5.2.3 5.9-1.7.7-1.8 1-.4 2.3 2.2 2.2 2.9 5.4 1.6 7-1 1.2-.9 1.5.3 1.5.8 0 1.8-.6 2.1-1.3.3-.6.3.8 0 3.3s-.6 4.7-.6 5c-.1 2.2.4 3 1.2 2.5.6-.3 1-.1 1 .5s-1 .8-2.7.4c-3.7-.9-4-1.3-2.3-2.5 1.3-.8 1.2-1.2-.6-2.7-2.3-1.8-4-5.7-3.5-8.1.2-1-.2-1-1.4.3-2.4 2.3-4.5 2-4.5-.7 0-1.6-.9-2.8-2.7-3.7-2.6-1.2-2.7-1.3-.8-2.1 1.6-.7 1.4-.8-.8-.4-3.4.7-9.7-.4-9.7-1.6 0-.5.8-.9 1.8-.9 1.2 0 1.8-.8 1.8-2.3 0-2.6-1.5-3.9-3.8-3.1-1.3.4-1.8 0-1.8-1.5 0-1.2-.4-2.1-1-2.1-2.3 0-.8-3.3 2-4.3 1.7-.6 3-1.4 3-1.8 0-.4 1.9-.6 4.3-.5 3.7.2 4.2.6 4 2.4zm315.2 14.5c.1.1.9 1.3 1.8 2.7 1.3 1.8 1.7 4.7 1.7 11.1 0 6.1.4 8.9 1.3 9.2 1.9.6-1.1 3.7-3.8 3.7-1.2 0-3.9 1.3-6 3-2.1 1.6-4.4 3-5.1 3-2.5 0-10.4 9.3-10.4 12.2 0 4.4-3.4 7.1-8.2 6.5-2.2-.3-4.2-.8-4.6-1.1-.3-.4-.6-3.8-.5-7.7 0-5.6.5-7.5 2.1-9.2 1.1-1.2 2.6-4.2 3.2-6.7 1.4-5 3.1-9.2 4.2-10 .4-.3 2.3-3.7 4.2-7.5 5.7-11.4 8.1-13 15.5-10.8 2.4.7 4.5 1.4 4.6 1.6zm-414.3 12.2c1.3 1.1 3.1 2.7 4 3.5.9.8 2.4 2.1 3.2 2.8.9.7 5.5 2.1 10.3 3.1 11.7 2.5 12.1 2.7 13.3 6.9 1.5 5.4 1.3 6.1-1.6 6.8-4.1 1-14.7 1-16.9 0-1.8-.9-1.9-.8-.6.7 1.8 2.3 1.8 2.2-10-1.9-10.6-3.8-15.7-7.7-15.1-11.5.2-.9-.2-2-.8-2.4-1.6-1-1.2-6.2.5-6.9.8-.3 1.5-1.1 1.5-1.8 0-2.2 9.4-1.6 12.2.7zm-33.1.5c1.5 1.2 2.6 2.6 2.3 3.3-.2.7 2.5 4.3 6.1 8.1 3.6 3.7 6.5 7.4 6.5 8.2 0 .8.7 1.4 1.5 1.4s2.1 1.3 2.9 2.8c1.3 2.5 1.2 3-.4 5.2-1.7 2.2-2.1 2.3-4.3 1.1-1.4-.7-4-1.4-5.8-1.6-3.3-.3-3.4-.3-3.1-4.4.3-3.4.1-4.1-1.5-4.1-1.5 0-1.6-.2-.3-1.1 1.2-.9 1.1-1-.8-.6-1.3.3-2 .1-1.6-.4.9-1.5-1.8-9.8-3.3-10.3-.7-.3-1.3.1-1.3.9s-.9 1.5-2 1.5c-2.2 0-2.7-1.5-.7-2.4.8-.3.5-1.1-1.2-2.5-2-1.8-2.2-2.3-1-3.9 3-3.8 4.1-3.9 8-1.2zm79.2 24.7c1.7 1 4 2.6 5.1 3.5 1.1 1 2.8 2 3.8 2.4 1 .3 1.8 1.2 1.8 1.9 0 2.2 2.2 2.9 3.5 1.2 1.6-2.2 2.7-2.2 2.4 0-.4 4.1 0 4.3 5.4 3.9 2.8-.2 6-.7 7-1.1 1.3-.5 1.7-.2 1.7 1.3 0 1.1.4 2.2.9 2.4.5.1.7 1.6.4 3.1-.4 2.1-1 2.6-2.4 2.2-1.1-.4-1.9-.2-1.9.4 0 1.1 1.8 1.5 5.8 1.1 1.2-.1 2.2.3 2.2.9 0 .6-.7.8-1.5.5-1.2-.5-1.4.1-1 3.4.4 3.1.1 4.4-1.2 5.4-1.1.8-1.8 2.7-1.9 4.9 0 3 .3 3.5 1.8 3.1 1-.2 1.8 0 1.8.6 0 1.3-4.1 2.3-5.4 1.3-1.8-1.4-5.6-2-5.6-.9 0 .6-1.2.8-2.7.5-1.5-.3-3.7.2-5 1-2.2 1.4-2.3 1.4-2.3-.6 0-1.6-.6-2.1-2.6-2.1-1.8 0-2.5-.5-2.3-1.8.3-3-.1-3.5-1.6-2.2-1.3 1-1.9.9-3.6-.6l-2-1.8 2.2-.8c1.7-.7 1.9-1.1.9-2.2-.9-1.2-.6-1.5 2.1-1.8 3-.3 3.5-.8 4.7-4.8 1.6-5.4.8-13-1.4-13-.8 0-1.4.7-1.4 1.5s-.4 1.5-1 1.5c-1.5 0-1.2 2.7.6 4.4 1.4 1.5 1.4 1.7-.2 1.5-.4 0-1 .5-1.4 1.1-.4.6-2.3 1.2-4.1 1.3-3.2.2-3.4-.1-4-3.3-1.2-7.4-4.5-12.1-6.4-9-.9 1.5-4.6 1.2-5.9-.5-1-1.4-1.6-1.4-5.4-.1-2.8 1-5 1.2-6.5.6-1.9-.8-2-.9-.3-.9 3.9-.2.5-1.3-4.9-1.7-3.6-.3-5.4-.1-5 .6.9 1.5-2.1 1.2-3.4-.4-1.3-1.5-7.4-.7-9.4 1.3-.6.6-2 1.1-3 1.1s-2.1.9-2.4 2c-.3 1.1-.9 1.7-1.4 1.5-.4-.3-.6-1.2-.3-1.9.3-.8-.5-2.3-1.7-3.5-1.9-1.8-2-2.1-.6-2.7.9-.3 1.5-1 1.2-1.4-.3-.5 1-.6 2.8-.3 1.9.3 4.4 0 5.5-.6 1.8-1 2.3-.8 3.3 1.1 1.1 2.1 1.3 2.1 1.9.4.3-1.1 1.3-2 2.1-2.1 8.2-1.2 26.3-2.6 27.5-2.1.9.4 2.2.2 2.8-.3 1-.8 4-1.6 7.4-2 .8 0 2.8.7 4.5 1.6zM717 514.5c.7.8 1.9 1.5 2.7 1.5.7 0 2.7 1 4.3 2.2 2.7 2 3.4 2.1 8.1 1 2.8-.7 6.5-1.2 8.3-1.2 3.2 0 3.4.2 3.9 4.7.6 5.9.4 6.5-3.6 8.3-3.8 1.7-14.9 1.5-17.8-.3-1.4-.9-2.2-.9-2.7-.1-.4.6-2 1.4-3.7 1.8-2.6.5-3.6 0-7.7-4-4-3.8-4.8-5.1-4.8-8.2 0-3 .6-4 2.8-5.4 3.5-2.1 8.6-2.2 10.2-.3zm-46.2 10.6c.2.5 1 1.6 1.8 2.3 1.6 1.7 1.9 3 .4 2.1-.5-.3-1-.2-1 .3 0 .6.7 1.2 1.5 1.6 2.2.8 1.8 4.3-.5 5.6-2.1 1.1-5.5 11-4.7 13.9.3 1.1-.2 1.7-1.6 1.8-1 .1-2.7.9-3.6 1.7-.9.9-4.7 2.5-8.5 3.6-3.7 1.2-7.5 2.9-8.5 3.8-5.6 5.3-6.9 6.2-8.4 5.6-2.3-.9-2.1-2.1.4-2.9 1.9-.6 1.6-1-2.2-2.7-2.9-1.3-3.9-2.2-2.9-2.6 2.2-.8 3-2.5 1.8-3.9-.8-1-.3-2.1 2.1-4.3 1.7-1.7 3.9-3 4.8-3 1.9-.1 6.3-3.3 6.3-4.6 0-.4.8-1.7 1.8-2.8 1-1.2 2.6-4.7 3.6-7.8.9-3.2 2-5.7 2.4-5.7 2.1.3 3.1-.3 3.7-2.2.6-1.9 1.2-2.1 5.9-1.5 2.8.4 5.3 1.2 5.4 1.7zm23 39.5c1.1 2.7 2.5 3.5 9.7 5.8 4 1.3 4.5 1.9 4.5 6.2 0 3.3-.5 4.6-2 5.4-1.6.9-2 .8-2-.5 0-1.1-1.1-1.5-4-1.5-2.6 0-4-.5-4-1.3 0-1.5-6.5-5.2-7.8-4.3-.5.3-1.8-.1-2.8-.9-1-.8-2.7-1.5-3.6-1.5-1.1 0-1.8-.8-1.8-2 0-1.1-.4-2-.9-2s-1.3-1-1.7-2.2c-.4-1.3-1.4-2.8-2.3-3.5-1.4-1-1.3-1.2 1.1-1.8 1.5-.4 3.1-.4 3.6-.1.5.3 2.7-.3 4.8-1.3 3.9-1.9 3.9-1.9 5.9.4 1.2 1.2 2.7 3.5 3.3 5.1zM553 566.2c1.6 1.7 1.9 3 1.4 5.7-.4 2-1 4-1.5 4.5-.5.6-.9 1.8-.9 2.7 0 1.9-4.1 3.1-10.8 3.1-3.3 0-4.8-.5-6.8-2.7-3-3.2-3.1-8.2-.1-7.7 1.2.2 1.7-.4 1.7-2 .1-5.1 13.1-7.8 17-3.6zM834.1 10.3c-5.9 3-11.2 8.1-10.5 10.1.3.9.1 1.6-.5 1.6-1.4 0-1 4.1.7 5.9 1.7 1.8 8 .2 12.1-3 2.8-2.3 3-2.8 3-9.7.1-3.9 0-7.2-.1-7.2-.2 0-2.3 1-4.7 2.3z"/><path d="M409 190.7c0 1.2.7 2.8 1.5 3.7 1.3 1.3 1.3 1.5-.3 2-1 .3-4.3.7-7.4.7l-5.7.2.6 3.1c.6 3.5 2.3 5.9 2.3 3.4 0-1.4.6-1.3 4.1.5 7.8 4.1 8.9 4.8 8.9 5.8 0 1.1-.1 1.1-6.5 1.4-2.7.2-5.3.3-5.7.4-1.3.2-.9 3.9.5 3.8 4.5-.1 6.7.5 6.7 1.8 0 1.1 1.2 1.5 4.8 1.5 2.7 0 5.7.7 7 1.6 1.2.8 2.2 1 2.2.5 0-.6-.4-1.1-.9-1.1-.4 0-.8-1.2-.7-2.8.1-3.2-.2-3.1 5.6-.8 4.3 1.7 4.4 1.8 2.5 3.3-2 1.5-2 1.5.2.8 1.3-.3 3.7 0 5.5.8 3.6 1.6 8.8 2.1 8.8.9 0-1 12.1-1.4 13.4-.3 1.7 1.3 9.5 2 10.2.9.8-1.3.1-1.8-3.2-2.4-3.9-.7-4.9-1.5-3-2.6.9-.5 2.1-.6 2.6-.3.6.3 1-.1 1-.9s-.4-1.8-1-2.1c-2.2-1.4-1-3.5 2-3.5 1.7 0 3-.5 3-1 0-.6-.9-1-2-1s-2-.4-2-1c0-.5-1.7-1.2-3.7-1.6-4.9-.9-10.3-3.2-10.3-4.3 0-.5-.7-1.2-1.6-1.5-1.3-.5-1.5-.2-1.1 1.4.3 1.1.2 2-.3 2-.4 0-1.1-1.5-1.5-3.3-.7-2.8-.8-2.9-1.2-.9-.3 1.6-.9 2.2-2 1.8-.8-.3-1.7-.6-1.9-.6-.2 0-.4-.5-.4-1.1 0-.5.4-.8.9-.4.5.3 1.3.1 1.6-.5 1.2-1.9-6.5-4.1-16.6-4.7-5.4-.3-9.9-1-9.9-1.6 0-.5-.8-.6-1.7-.3-1.1.5-2.3-.1-3.5-1.6l-1.8-2.3v2.2zm206.7 175.5c.2.5-.2.8-1 .8-.7 0-2.5 1.3-4 2.9-1.9 2.2-2.3 3.2-1.4 3.9 2.2 1.8 6.6 1.1 8.2-1.4.9-1.4 2.5-2.4 4-2.4 2 0 2.5.6 3 3.7.3 2.1 1.1 5.7 1.7 8 2 7.8-2 34.6-6.3 42.5-.8 1.4-2.5 4.5-3.8 6.9-3.6 6.7-8 11.8-10.7 12.5-2.4.6-3.4 2.4-1.4 2.4 1.9 0 7.5-3.2 8.8-5.1.7-1 1.9-2.4 2.6-3.2 3.8-3.7 11.5-13.7 13.1-16.8 1-1.8 2.1-3.6 2.4-3.9 1.4-1.2 5-8.8 4.4-9.3-.3-.4.1-1.5.9-2.4 1.4-1.6 2.6-6.3 3.2-11.9.1-1.1.5-2.5.9-3 1.1-1.8 2-14.1 1.3-17.8-.5-2.5-1.1-3.4-2.1-2.9-1.1.3-1.3.1-.9-1 .3-1-.2-1.8-1.8-2.3-3-1-21.7-1.1-21.1-.2z"/><path d="M596.8 377.1c-1 .5-1.8 1.4-1.8 2 0 .5-2.6 3.5-5.8 6.7-5.7 5.6-9.2 12.6-7.3 14.5.5.5 2.5.4 4.5-.1 4.1-1.2 4.5-.8 5.2 5 .3 2.4 1 6 1.5 8.2.6 2.1.7 6.2.4 9-.6 4.8-.6 5 .9 3.1.8-1.1 1.6-2.6 1.6-3.3 0-.6.4-1.2 1-1.2.8 0 .5 4.2-.6 7.8-.2.7.4 2.3 1.3 3.6l1.7 2.2 3.7-2c3.2-1.8 4-2.9 5.3-7.7.9-3 1.6-7.1 1.6-9 0-2 .3-3.9.7-4.3.4-.4.8-3.2.8-6.1 0-4-.4-5.5-1.3-5.5s-1.2-.6-.8-1.5c.3-.9-.1-1.8-.8-2.1-.8-.3-1.7-1.7-2.1-3.1-.3-1.4-1.2-3.1-1.9-3.9-.8-.7-2.2-4-3.2-7.3-1.9-6.5-2-6.6-4.6-5zm-588.3 49C-.2 432.5 0 432 0 444.2c0 8.4.3 11.3 1.5 12.4.8.9 1.5 2.9 1.5 4.5 0 1.9.5 2.9 1.5 2.9.8 0 1.5.9 1.5 2s.6 2 1.4 2c.8 0 2.3.3 3.3.7 1.7.7 1.7.6-.1-2.1-1.9-3-1.1-4.6 2.5-4.6 1.7 0 4.9-3 4.9-4.7 0-.5 1.2-4.7 2.6-9.2l2.6-8.3-2.2-6.1c-2.7-7.3-4.9-10.7-7-10.6-.8 0-3.3 1.4-5.5 3zm815.9 180.6c.4 1.9.4 2.3-.3 1.4-.7-1.1-1.5-1.1-4.1-.2-1.8.6-3.5.9-3.9.6-.4-.2-2 .5-3.7 1.6-3.5 2.3-8.4 2.6-8.4.4 0-1-1-1.5-2.9-1.5-1.6 0-3.1-.5-3.3-1.1-.9-2.7-12.9 6.9-13.4 10.7-.9 5.7-8.9 14.4-13.4 14.4-1 0-3.7.7-6 1.5-2.4.8-7.3 1.6-10.9 1.8-5.3.2-6.6.5-6.9 1.9-.2 1.2 1.2 2.5 4.5 4.2 2.6 1.4 6.1 3.5 7.6 4.8 8 6.5 9.4 7.5 12 8.8 1.6.8 2.6 1.9 2.3 2.7-.6 1.4-.5 1.4 3.4 1.7 1.4.1 3.4.7 4.6 1.3 1.9 1.1 2.1.8 3.2-3.4 1-3.4 1-4.9.1-5.9-.6-.8-.9-2.5-.7-3.9.3-1.4.2-2.5-.2-2.5s-.5-1-.3-2.3c.8-3.9 5.7-5.5 14.3-4.5 4.9.5 9.6.4 13.6-.3 5.6-1 6.4-1.5 10-6 3.8-4.8 6.3-11.6 6.4-17.2 0-1.6.4-3.6.9-4.5.5-1 .7-3 .4-4.5-.4-2.1-1.1-2.7-3-2.7-2.2 0-2.4.3-1.9 2.7zM812.5 667c-5.9 4-13 6-16.9 4.9-2-.5-3.6-1.4-3.6-1.9 0-.4-1.4-1.2-3.2-1.5-1.8-.4-4-1.2-4.9-1.8-1.3-.8-2.3-.5-4.4 1.1-2.8 2.2-6.1 3-5 1.2.9-1.4-3.9-1.2-5.3.2-.7.7-1.2.8-1.2.4s-1.4.4-3.1 1.8c-1.7 1.4-3.4 2.6-3.9 2.6-1.5 0-5.3 4.4-10.2 11.8-2.7 3.9-4.8 7.4-4.8 7.7 0 .3-1.1 2.2-2.3 4.3-1.3 2-5.4 9.5-9.2 16.7-3.7 7.1-7.1 13.5-7.6 14.1-1.5 1.9-2.1 9.8-1 12.7.6 1.6 1.8 2.7 2.9 2.7 1 0 2.6.8 3.6 1.9 1.4 1.5 1.6 3.5 1.2 12.2-.5 12.5.3 15.8 6.7 27.4 2.4 4.2 3.9 6 5.3 5.9 6.2-.3 6.3-.3 6.1-3.1-.1-2 .4-3.1 1.9-3.7 1.8-.8 2.3-2.2 2.8-7.5.9-8.8 2.5-11.1 7.6-11.1 2.5 0 4-.5 4-1.3 0-.7.7-.4 1.5.7 2.1 2.8 2.1 15.9 0 18-.8.8-1.5 2.2-1.5 3 0 1.2-1.1 1.6-5 1.6-2.7 0-5-.5-5-1 0-.6-1.2-.9-2.7-.9-1.7.1-2.1.3-1 .6 2.3.6 2.2 2-.3 3.3-1.1.6-2 2.1-2 3.5 0 1.3-.5 2.7-1 3-.6.4-.4 1.2.6 2.2 1.1 1.2 2.7 1.4 6.4 1 2.7-.3 5.2-.2 5.5.4.8 1.1 11.5 1.2 13.3 0 2-1.2 4.2-6 4.2-9.1 0-2.2.6-2.9 2.6-3.4 1.6-.4 3-1.9 4-4.1 1-2.4 1.9-3.3 2.9-2.9 1.2.5 1.5 2.4 1.5 8.6 0 4.4-.5 8.8-1 9.9-1 1.9-.5 1.9 23.5 1.9H839v-56.6c0-51.2-.2-56.6-1.6-56-.9.3-2.4.6-3.5.6-1.2 0-1.9.7-1.9 2 0 2.1-1.6 2.5-5.7 1.4-1.4-.4-2.4-1.7-2.9-4.2-1.1-4.9-1.1-9.2-.2-9.8 1.1-.7 1-5.2-.2-5.9-.5-.3-1.7-2.1-2.6-4-1.9-4-3.6-4.3-7.9-1.5zm7 30c.3.5.1 1-.4 1-.6 0-1.1.4-1.1 1 0 .5.7 1 1.6 1 1.2 0 1.5.9 1.3 3.7-.1 2.1-.1 7.5 0 12 .1 7.6.3 8.3 2.1 8.3 1.7 0 1.9.5 1.3 3.2-.3 1.8-.9 3.5-1.3 3.8-.3.3-1.6 1.2-2.8 2.1-1.3.9-2.3 2.9-2.6 5-.2 2.4-.9 3.5-2.2 3.7-1.5.3-1.7.1-.6-.9 1.7-1.8 1.7-16.9-.1-16.9-1.2 0-4.4-8-4.9-12.5-.2-1.1 1.2-4.2 3-6.8 1.7-2.6 3.2-5.7 3.2-6.8 0-2 2.4-2.6 3.5-.9zm-131.8-27.1c-.3 1.2-1.7 2.1-4.1 2.5-2 .4-3.6 1.1-3.6 1.6s-.9 1.1-1.9 1.5c-3.3 1-6.1 6.9-5.4 11.2.3 2.1.6 5.4.5 7.3 0 1.9-.1 4.6-.1 5.9-.1 1.4.6 3.5 1.4 4.8 1.4 2.1 2 2.2 9.1 1.7 4.2-.3 8.9-1.1 10.5-1.8 3.5-1.5 9.8-9.5 10.4-13.3.2-1.5.9-4.8 1.5-7.3 2.1-8.5 2.1-8.4-4-9-5.5-.6-5.5-.6-1.5-1.1l4-.6-3.8-.1c-3.6-.2-8.7-3.2-5.5-3.2 1 0 .9-.3-.2-1-2.6-1.7-6.7-1.2-7.3.9z"/></svg>